<?xml version="1.0" encoding="UTF-8"?>
<svg id="apple-favicon" xmlns="http://www.w3.org/2000/svg" width="180" height="180" viewBox="0 0 180 180">
  <!-- White background ONLY for Apple devices (Safari requirement) -->
  <rect width="180" height="180" fill="#ffffff"/>
  <!-- Your NEST-Haus logo centered and scaled -->
  <g transform="translate(80.34, 80.615)">
    <path d="M9.66,1.02c.3,0,.59.09.84.27l7.1,5.14c.45.32.71.84.71,1.39v8.61c0,.72-.59,1.31-1.31,1.31H2.32c-.72,0-1.31-.59-1.31-1.31V7.82c0-.55.27-1.07.71-1.39L8.82,1.29c.25-.18.54-.27.84-.27M9.66.02c-.5,0-1,.15-1.42.46L1.14,5.62C.43,6.13.01,6.95.01,7.82v8.61c0,1.28,1.03,2.31,2.31,2.31h14.67c1.28,0,2.31-1.03,2.31-2.31V7.82c0-.87-.42-1.69-1.13-2.2L11.08.48c-.43-.31-.92-.46-1.42-.46h0Z" fill="#000000"/>
  </g>
</svg>

